<?xml version="1.0" encoding="UTF-8"?><svg xmlns="http://www.w3.org/2000/svg" xmlns:xlink="http://www.w3.org/1999/xlink" viewBox="0 0 671.45 237.81"><defs><style>.e{fill:#fff;}.f{isolation:isolate;}.g{fill:#e8610c;}.h{fill:#acbcc5;}.i{fill:url(#d);fill-rule:evenodd;mix-blend-mode:screen;}</style><linearGradient id="d" x1="-171.33" y1="365.07" x2="-185.46" y2="390.3" gradientTransform="translate(311.61 -387.9) rotate(-7.23) scale(1.02 1) skewX(-.18)" gradientUnits="userSpaceOnUse"><stop offset="0" stop-color="#fff"/><stop offset="1" stop-color="#000"/></linearGradient></defs><g class="f"><g id="a"/><g id="b"><g id="c"><g><g><g><path class="h" d="M201.35,30.87C199.5,12.06,182.75-1.69,163.94,.17c-18.81,1.86-32.55,18.62-30.68,37.42,1.6,16.3,14.41,28.79,30.02,30.62-.12,1.2-.47,2.46-1.17,3.76-3.21,5.97-14.28,10.26-14.28,10.26l.63,2.19s40.15-9.6,50.23-36.55c2.26-5.18,3.26-10.99,2.67-17.01Z"/><path class="i" d="M198.6,26.86c3.4,16.92-7.88,33.46-25.2,36.93-17.31,3.47-34.09-7.43-37.49-24.35-3.4-16.92,7.89-33.45,25.19-36.92,17.31-3.47,34.1,7.43,37.49,24.35Z"/></g><path class="e" d="M154.71,53.66c-.85,.45-1.42,.05-1.27-.91l2.19-13.4c.16-.95-.29-2.28-.98-2.95l-9.77-9.37c-.7-.67-.48-1.34,.47-1.48l13.41-2.04c.96-.14,2.09-.97,2.51-1.85l5.91-12.19c.42-.87,1.12-.87,1.55,0l6.07,12.11c.43,.86,1.57,1.68,2.53,1.81l13.43,1.87c.95,.14,1.18,.79,.49,1.48l-9.65,9.5c-.68,.68-1.12,2.01-.94,2.96l2.34,13.35c.17,.95-.4,1.36-1.25,.92l-12.03-6.24c-.85-.45-2.26-.44-3.1,.02l-11.92,6.4Z"/></g><path class="g" d="M242.74,149.95h-75.78c.14,7.29,2.97,13.37,8.51,18.23,5,4.59,11.01,6.89,18.03,6.89,12.84,0,22.7-4.87,29.58-14.59l20.87,12.16c-10.94,16.75-27.75,25.12-50.45,25.12-16.2,0-29.1-5.13-38.69-15.4-9.19-9.85-13.78-22.61-13.78-38.29s4.69-28.53,14.08-38.6c9.38-10.06,22.19-15.09,38.39-15.09,32.82,0,49.24,19.85,49.24,59.57Zm-75.78-19.05h49.84c0-3.92-1.82-7.97-5.47-12.16-4.59-5.4-10.53-8.11-17.83-8.11-6.88,0-12.69,1.93-17.42,5.78-4.73,3.85-7.77,8.68-9.12,14.48Z"/><path class="g" d="M257.26,92.82V56.34h24.71v36.47h22.08v17.82h-22.08v51.87c0,4.46,.67,7.56,2.02,9.32,1.62,2.16,4.66,3.24,9.12,3.24l10.94-1.22v20.26c-7.83,1.62-14.38,2.43-19.65,2.43-18.1,0-27.14-8.24-27.14-24.71v-61.19"/><path class="g" d="M322.9,76.2v-25.12h24.71v25.12h-24.71Zm0,119.13V92.82h24.71v102.51h-24.71Z"/><path class="g" d="M670.24,149.95h-75.77c.14,7.29,2.97,13.37,8.51,18.23,4.99,4.59,11.01,6.89,18.03,6.89,12.84,0,22.69-4.87,29.58-14.59l20.86,12.16c-10.93,16.75-27.76,25.12-50.45,25.12-16.2,0-29.1-5.13-38.69-15.4-9.18-9.85-13.77-22.61-13.77-38.29s4.69-28.53,14.08-38.6c9.39-10.06,22.19-15.09,38.39-15.09,32.82,0,49.23,19.85,49.23,59.57Zm-75.77-19.05h49.84c0-3.92-1.82-7.97-5.47-12.16-4.59-5.4-10.53-8.11-17.83-8.11-6.88,0-12.69,1.93-17.42,5.78-4.73,3.85-7.77,8.68-9.11,14.48Z"/><path class="g" d="M26.87,194.47h.02V112.81l77.65,81.66h23.85V62.08h-4.95c-7.76,.96-21.9,4.99-21.9,21.66l-.05-.02v65.46L23.85,66.19H0V194.47H26.87Z"/><path class="h" d="M261.39,231.41h2.17v1.38c0,1.93,.89,2.85,3.77,2.85h7.16c3.34,0,4.33-.81,4.33-3.63,0-2.47-.85-3.09-3.72-3.09h-4.38c-7.04,0-9.35-.49-9.35-5.7,0-4.48,2.31-5.48,7.06-5.48h4.97c5.72,0,7.16,1.68,7.16,5.18v.68h-2.17c-.05-3.12-.33-3.69-6.38-3.69h-2.45c-4.45,0-6.03,.27-6.03,3.5,0,2.33,.64,3.12,4.24,3.12h6.83c4.5,0,6.38,1.49,6.38,4.83v1.28c0,4.83-3.44,5.18-6.85,5.18h-6.4c-3.37,0-6.33-.68-6.33-4.97v-1.44Z"/><path class="h" d="M651.76,231.41h2.17v1.38c0,1.93,.9,2.85,3.77,2.85h7.16c3.34,0,4.33-.81,4.33-3.63,0-2.47-.85-3.09-3.72-3.09h-4.38c-7.04,0-9.35-.49-9.35-5.7,0-4.48,2.31-5.48,7.06-5.48h4.97c5.72,0,7.16,1.68,7.16,5.18v.68h-2.17c-.05-3.12-.33-3.69-6.38-3.69h-2.45c-4.45,0-6.03,.27-6.03,3.5,0,2.33,.64,3.12,4.24,3.12h6.83c4.5,0,6.38,1.49,6.38,4.83v1.28c0,4.83-3.44,5.18-6.85,5.18h-6.4c-3.37,0-6.33-.68-6.33-4.97v-1.44Z"/><path class="h" d="M286.96,225.09c0-4.96,1.46-7.35,6.07-7.35h9.82c4.61,0,6.07,2.39,6.07,7.35v5.37c0,4.97-1.46,7.35-6.07,7.35h-9.82c-4.61,0-6.07-2.39-6.07-7.35v-5.37Zm19.66-1c0-3.42-1.79-4.18-4-4.18h-9.35c-2.21,0-4,.76-4,4.18v7.38c0,3.42,1.79,4.18,4,4.18h9.35c2.21,0,4-.76,4-4.18v-7.38Z"/><path class="h" d="M315.35,217.96h2.31v17.47h13.23v2.17h-15.54v-19.64Z"/><path class="h" d="M335.72,217.96h2.31v14.68c0,1.9,.57,3.01,3.7,3.01h8.01c3.13,0,3.7-1.11,3.7-3.01v-14.68h2.31v14.7c0,3.99-1.74,5.15-6.07,5.15h-7.87c-4.33,0-6.07-1.17-6.07-5.15v-14.7Z"/><path class="h" d="M369.36,220.13h-8.62v-2.17h19.54v2.17h-8.62v17.47h-2.31v-17.47Z"/><path class="h" d="M385.37,217.96h2.31v19.64h-2.31v-19.64Z"/><path class="h" d="M394.17,225.09c0-4.96,1.46-7.35,6.07-7.35h9.82c4.61,0,6.07,2.39,6.07,7.35v5.37c0,4.97-1.46,7.35-6.07,7.35h-9.82c-4.61,0-6.07-2.39-6.07-7.35v-5.37Zm19.66-1c0-3.42-1.79-4.18-4-4.18h-9.35c-2.21,0-4,.76-4,4.18v7.38c0,3.42,1.79,4.18,4,4.18h9.35c2.21,0,4-.76,4-4.18v-7.38Z"/><path class="h" d="M422.42,217.96h3.44l15.61,17.25v-17.25h2.31v19.64h-3.44l-15.61-17.25v17.25h-2.31v-19.64Z"/><path class="h" d="M450.09,231.41h2.17v1.38c0,1.93,.9,2.85,3.77,2.85h7.16c3.34,0,4.33-.81,4.33-3.63,0-2.47-.85-3.09-3.72-3.09h-4.38c-7.04,0-9.35-.49-9.35-5.7,0-4.48,2.31-5.48,7.06-5.48h4.97c5.72,0,7.16,1.68,7.16,5.18v.68h-2.17c-.05-3.12-.33-3.69-6.38-3.69h-2.45c-4.45,0-6.03,.27-6.03,3.5,0,2.33,.63,3.12,4.24,3.12h6.83c4.5,0,6.38,1.49,6.38,4.83v1.28c0,4.83-3.44,5.18-6.85,5.18h-6.41c-3.37,0-6.33-.68-6.33-4.97v-1.44Z"/><path class="h" d="M489.66,217.96h13.77c5.72,0,7.28,2.06,7.28,9.82,0,7.21-1.55,9.82-7.35,9.82h-13.7v-19.64Zm18.74,8.87c0-5.67-1.53-6.7-4.36-6.7h-12.08v15.3h11.7c2.8,0,4.73-.71,4.73-6.59v-2.01Z"/><path class="h" d="M517.21,217.96h2.31v19.64h-2.31v-19.64Z"/><path class="h" d="M547.37,230.57c0,5.35-1.51,7.24-5.77,7.24h-9.51c-4.62,0-6.07-2.39-6.07-7.35v-5.37c0-4.96,1.46-7.35,6.07-7.35h8.71c3.06,0,6.33,.87,6.33,5.4v.7h-2.17c0-3.66-.97-3.93-6.66-3.93h-5.98c-2.21,0-4,.76-4,4.18v7.38c0,3.42,1.79,4.18,4,4.18h9.02c2.31,0,3.72-.92,3.72-3.63v-1.98h-8.74v-2.17h11.04v2.71Z"/><path class="h" d="M553.86,217.96h2.31v19.64h-2.31v-19.64Z"/><path class="h" d="M569.87,220.13h-8.62v-2.17h19.54v2.17h-8.62v17.47h-2.31v-17.47Z"/><path class="h" d="M591.87,217.96h2.87l10.13,19.64h-2.61l-2.12-4.15h-13.66l-2.12,4.15h-2.61l10.12-19.64Zm1.44,2.17l-5.72,11.15h11.44l-5.72-11.15Z"/><path class="h" d="M609.83,217.96h2.31v17.47h13.23v2.17h-15.54v-19.64Z"/><path class="h" d="M630.19,217.96h16.74v2.17h-14.43v6.27h13.87v2.17h-13.87v6.87h14.53v2.17h-16.83v-19.64Z"/><path class="g" d="M543.01,138c-3.78-1.76-14.11-4.19-31-7.3-11.21-2.16-16.81-5.54-16.81-10.13,0-6.75,6.28-10.06,18.83-9.93,3.24,.03,6.2,.37,8.9,1.01v-.02s11.8,2.63,21.3,9.4l12.76-12.01c-.29-.36-.59-.69-.89-1.04-3.35-3.7-16.36-16.12-41.36-17.59h0s-.06,0-.1,0c-13.51,0-24.25,2.64-32.22,7.9-8.78,5.81-13.17,14.25-13.17,25.33s5.47,19.31,16.41,24.31c4.05,1.76,14.24,4.33,30.58,7.71,10.95,2.16,16.42,5.47,16.42,9.92,0,2.97-1.83,5.67-5.47,8.11-4.05,2.57-8.85,3.85-14.38,3.85-3.27,0-6.31-.24-9.13-.71l.02,.02s-.19-.03-.51-.09c-.05,0-.09-.02-.14-.03-.4-.07-.96-.19-1.66-.34-.21-.05-.42-.09-.63-.14-4.87-1.11-14.66-3.89-20.58-9.11l-15.58,12.03c10.94,12.43,27.48,18.64,49.63,18.64,12.7,0,23.24-2.9,31.61-8.71,9.32-6.48,13.98-15.53,13.98-27.15s-5.61-19.05-16.81-23.9Z"/><path class="g" d="M440.7,138c-3.78-1.76-14.11-4.19-31-7.3-11.21-2.16-16.81-5.54-16.81-10.13,0-6.75,6.28-10.06,18.83-9.93,3.24,.03,6.2,.37,8.9,1.01v-.02s11.8,2.63,21.3,9.4l12.76-12.01c-.29-.36-.59-.69-.89-1.04-3.35-3.7-16.36-16.12-41.36-17.59h0s-.06,0-.1,0c-13.5,0-24.25,2.64-32.22,7.9-8.78,5.81-13.17,14.25-13.17,25.33s5.47,19.31,16.41,24.31c4.05,1.76,14.24,4.33,30.58,7.71,10.95,2.16,16.42,5.47,16.42,9.92,0,2.97-1.83,5.67-5.47,8.11-4.05,2.57-8.85,3.85-14.38,3.85-3.27,0-6.31-.24-9.13-.71l.02,.02s-.19-.03-.51-.09c-.05,0-.09-.02-.14-.03-.4-.07-.96-.19-1.66-.34-.21-.05-.42-.09-.63-.14-4.87-1.11-14.66-3.89-20.58-9.11l-15.58,12.03c10.94,12.43,27.48,18.64,49.63,18.64,12.7,0,23.24-2.9,31.61-8.71,9.32-6.48,13.98-15.53,13.98-27.15s-5.61-19.05-16.81-23.9Z"/></g></g></g></g></svg>