<svg width="771" height="401" viewBox="0 0 771 401" fill="none" xmlns="http://www.w3.org/2000/svg">
<path d="M636.862 396.649C630.7 396.649 624.919 396.155 619.519 395.166C614.194 394.253 609.783 393.074 606.284 391.629L617.237 355.346C622.942 357.095 628.076 358.046 632.64 358.198C637.28 358.35 641.273 357.286 644.62 355.004C648.043 352.722 650.819 348.842 652.949 343.366L655.802 335.949L592.934 155.676H644.05L680.333 284.378H682.158L718.783 155.676H770.241L702.125 349.869C698.854 359.301 694.405 367.516 688.776 374.514C683.223 381.588 676.187 387.027 667.668 390.83C659.149 394.709 648.88 396.649 636.862 396.649Z" fill="#4A18BE"/>
<path d="M482.488 400.301C466.742 400.301 453.241 398.133 441.983 393.797C430.802 389.538 421.902 383.719 415.284 376.34C408.667 368.962 404.369 360.671 402.391 351.467L447.346 345.42C448.715 348.919 450.883 352.19 453.849 355.233C456.816 358.275 460.733 360.709 465.601 362.535C470.545 364.436 476.555 365.387 483.629 365.387C494.202 365.387 502.911 362.801 509.757 357.629C516.679 352.532 520.14 343.975 520.14 331.957V299.895H518.086C515.956 304.764 512.761 309.366 508.502 313.701C504.242 318.037 498.765 321.574 492.072 324.312C485.378 327.051 477.391 328.42 468.111 328.42C454.952 328.42 442.972 325.377 432.171 319.292C421.446 313.131 412.888 303.737 406.499 291.11C400.186 278.407 397.029 262.358 397.029 242.961C397.029 223.108 400.262 206.526 406.727 193.215C413.193 179.903 421.788 169.939 432.513 163.321C443.314 156.704 455.142 153.395 467.997 153.395C477.81 153.395 486.025 155.068 492.642 158.415C499.26 161.686 504.584 165.793 508.616 170.738C512.723 175.606 515.88 180.398 518.086 185.114H519.911V155.677H568.174V332.641C568.174 347.55 564.523 360.025 557.221 370.065C549.919 380.106 539.802 387.636 526.871 392.656C514.016 397.753 499.222 400.301 482.488 400.301ZM483.514 291.909C491.349 291.909 497.967 289.969 503.367 286.09C508.844 282.134 513.028 276.506 515.918 269.203C518.885 261.825 520.368 253.002 520.368 242.733C520.368 232.464 518.923 223.565 516.032 216.034C513.142 208.428 508.958 202.533 503.481 198.349C498.005 194.166 491.349 192.074 483.514 192.074C475.528 192.074 468.796 194.242 463.319 198.577C457.843 202.837 453.697 208.77 450.883 216.376C448.068 223.983 446.661 232.768 446.661 242.733C446.661 252.849 448.068 261.597 450.883 268.975C453.773 276.277 457.919 281.944 463.319 285.976C468.796 289.931 475.528 291.909 483.514 291.909Z" fill="#4A18BE"/>
<path d="M267.13 334.239C255.948 334.239 245.984 332.299 237.237 328.42C228.489 324.464 221.567 318.645 216.471 310.963C211.451 303.204 208.94 293.544 208.94 281.982C208.94 272.246 210.728 264.069 214.303 257.451C217.878 250.834 222.746 245.509 228.907 241.478C235.069 237.446 242.067 234.404 249.901 232.35C257.812 230.296 266.103 228.851 274.774 228.014C284.967 226.949 293.182 225.961 299.419 225.048C305.657 224.059 310.183 222.614 312.997 220.712C315.811 218.811 317.219 215.996 317.219 212.269V211.584C317.219 204.358 314.937 198.767 310.373 194.812C305.885 190.857 299.495 188.879 291.204 188.879C282.457 188.879 275.497 190.819 270.325 194.698C265.152 198.501 261.729 203.293 260.056 209.074L215.102 205.423C217.384 194.774 221.871 185.57 228.565 177.812C235.259 169.977 243.892 163.968 254.465 159.784C265.114 155.525 277.437 153.395 291.433 153.395C301.169 153.395 310.487 154.536 319.386 156.818C328.362 159.1 336.311 162.637 343.233 167.429C350.231 172.221 355.745 178.382 359.777 185.913C363.808 193.367 365.824 202.304 365.824 212.725V330.93H319.729V306.627H318.36C315.545 312.104 311.78 316.934 307.064 321.118C302.348 325.225 296.681 328.458 290.063 330.816C283.446 333.098 275.801 334.239 267.13 334.239ZM281.05 300.694C288.2 300.694 294.513 299.287 299.99 296.473C305.467 293.582 309.764 289.703 312.883 284.835C316.002 279.967 317.561 274.452 317.561 268.291V249.693C316.04 250.682 313.948 251.594 311.286 252.431C308.699 253.192 305.771 253.914 302.5 254.599C299.229 255.207 295.958 255.778 292.688 256.31C289.417 256.767 286.45 257.185 283.788 257.565C278.083 258.402 273.101 259.733 268.841 261.559C264.582 263.384 261.273 265.857 258.915 268.975C256.557 272.018 255.378 275.821 255.378 280.385C255.378 287.003 257.774 292.061 262.566 295.56C267.434 298.983 273.595 300.694 281.05 300.694Z" fill="#4A18BE"/>
<path d="M134.292 164.462C133.379 155.258 129.462 148.108 122.54 143.012C115.618 137.915 106.224 135.367 94.3582 135.367C86.2954 135.367 79.4876 136.508 73.9349 138.79C68.3821 140.996 64.1225 144.077 61.156 148.032C58.2655 151.987 56.8203 156.475 56.8203 161.495C56.6682 165.679 57.5429 169.33 59.4445 172.449C61.4222 175.567 64.1225 178.268 67.5454 180.55C70.9683 182.755 74.9237 184.695 79.4115 186.369C83.8993 187.966 88.6914 189.335 93.7877 190.476L114.782 195.496C124.974 197.778 134.33 200.821 142.849 204.624C151.369 208.427 158.747 213.105 164.984 218.658C171.222 224.211 176.052 230.752 179.475 238.283C182.974 245.813 184.761 254.446 184.837 264.183C184.761 278.483 181.11 290.881 173.884 301.378C166.734 311.799 156.389 319.9 142.849 325.681C129.386 331.386 113.146 334.238 94.13 334.238C75.266 334.238 58.836 331.348 44.8401 325.567C30.9203 319.786 20.043 311.229 12.2084 299.895C4.44978 288.485 0.380324 274.375 0 257.565H47.8066C48.3391 265.4 50.583 271.941 54.5384 277.19C58.5698 282.362 63.9324 286.279 70.626 288.942C77.3958 291.528 85.0403 292.821 93.5595 292.821C101.927 292.821 109.191 291.604 115.352 289.17C121.589 286.736 126.419 283.351 129.842 279.015C133.265 274.68 134.977 269.697 134.977 264.069C134.977 258.82 133.417 254.408 130.299 250.833C127.256 247.258 122.768 244.216 116.835 241.706C110.978 239.195 103.79 236.913 95.271 234.86L69.8274 228.47C50.1266 223.678 34.5714 216.186 23.1617 205.993C11.752 195.801 6.08517 182.071 6.16124 164.804C6.08517 150.656 9.85038 138.296 17.4568 127.723C25.1394 117.15 35.6743 108.897 49.0617 102.964C62.4491 97.0305 77.662 94.064 94.7005 94.064C112.043 94.064 127.18 97.0305 140.111 102.964C153.118 108.897 163.235 117.15 170.461 127.723C177.687 138.296 181.414 150.542 181.642 164.462H134.292Z" fill="#4A18BE"/>
<circle cx="95.9192" cy="36.1723" r="36.1723" fill="#4A18BE"/>
</svg>
