<?xml version="1.0" encoding="UTF-8"?>
<svg id="Layer_1" data-name="Layer 1" xmlns="http://www.w3.org/2000/svg" viewBox="0 0 2322.48 720.96">
  <defs>
    <style>
      .cls-1 {
        fill: #28a745;
      }

      .cls-1, .cls-2 {
        fill-rule: evenodd;
      }
    </style>
  </defs>
  <g>
    <path class="cls-1" d="M174.59,355.45c5.72-67.1,50.08-123.16,110.73-145.85l41.85-89.54v125.83c-55.95,8.12-99.95,53.13-106.55,109.56h-46.03Z"/>
    <path class="cls-1" d="M516.16,384.94c-5.72,67.1-50.08,123.16-110.73,145.85l-41.85,89.54v-125.83c55.95-8.12,99.95-53.13,106.55-109.56h46.03Z"/>
    <path class="cls-1" d="M360.11,245.49v-46.08c67.1,5.72,123.16,50.08,145.85,110.73l89.54,41.85h-125.83c-6.7-46.15-38.49-84.17-81.09-99.77v.03c-9.05-3.31-18.58-5.61-28.46-6.76Z"/>
    <path class="cls-2" d="M302.17,480.63v-165.52h28.46l29.48,60.07v-122.62c9.92,1.23,19.46,3.69,28.46,7.21v165.25h-28.46l-29.48-60.07v122.89c-9.92-1.23-19.46-3.69-28.46-7.21Z"/>
    <path class="cls-1" d="M302.17,488.17v-.03c9.04,3.31,18.58,5.61,28.46,6.76v46.08c-67.1-5.72-123.16-50.08-145.85-110.73l-89.54-41.85h125.83c6.7,46.15,38.49,84.17,81.1,99.77Z"/>
  </g>
  <g>
    <path class="cls-1" d="M2011.47,444.9c44.68,0,81.12-36.44,81.12-81.12s-36.44-81.12-81.12-81.12-81.12,36.44-81.12,81.12,36.44,81.12,81.12,81.12Z"/>
    <path class="cls-2" d="M739.32,474.83h48.75v-142.72l108.73,142.72h42.01v-224.51h-48.75v138.23l-105.2-138.23h-45.54v224.51h0ZM973.45,474.83h50.36l20.52-50.35h94.94l20.53,50.35h51.64l-96.22-226.11h-45.54l-96.22,226.11h0ZM1061.97,380.85l29.83-72.81,29.83,72.81h-59.66ZM1285.52,476.43l-90.77-226.11h54.53l58.69,158.12,58.69-158.12h53.24l-90.77,226.11h-43.62ZM1454.54,474.83h170.95v-43.94h-121.88v-47.15h105.84v-43.94h-105.84v-45.55h120.27v-43.94h-169.35v224.51h0ZM1669.43,474.83h49.39v-71.84h38.81l48.11,71.84h57.73l-54.85-80.18c28.54-10.58,48.11-33.36,48.11-69.6v-.64c0-21.49-6.41-38.49-19.24-51.32-15.07-15.07-36.88-22.77-65.43-22.77h-102.63v224.51h0ZM1718.82,359.36v-64.47h49.07c24.38,0,38.81,10.58,38.81,32.07v.64c0,19.24-13.47,31.75-37.85,31.75h-50.03ZM2010.37,478.67c69.28,0,119.63-52.28,119.63-116.1v-.64c0-63.82-49.71-115.46-118.99-115.46s-119.63,52.28-119.63,116.11v.64c0,63.83,49.71,115.46,118.99,115.46h0ZM2011.01,433.13c-39.77,0-67.99-32.07-67.99-70.56v-.64c0-38.49,27.58-69.92,67.35-69.92s67.99,32.07,67.99,70.56v.64c0,38.49-27.58,69.92-67.35,69.92Z"/>
  </g>
</svg>